<?xml version="1.0" standalone="no"?>
<svg xmlns="http://www.w3.org/2000/svg" viewBox="0 0 1440 320" preserveAspectRatio="none">
    <path fill="#ffffff" fill-opacity="1" d="M0,288L30,282.7C60,277,120,267,180,256C240,245,300,235,360,245.3C420,256,480,288,540,282.7C600,277,660,235,720,229.3C780,224,840,256,900,261.3C960,267,1020,245,1080,218.7C1140,192,1200,160,1260,154.7C1320,149,1380,171,1410,181.3L1440,192L1440,320L1410,320C1380,320,1320,320,1260,320C1200,320,1140,320,1080,320C1020,320,960,320,900,320C840,320,780,320,720,320C660,320,600,320,540,320C480,320,420,320,360,320C300,320,240,320,180,320C120,320,60,320,30,320L0,320Z"></path>
</svg>