          <!-- <?xml version="1.0" encoding="utf-8"?> -->
          <svg  viewBox="0 0 500 500">
              <title>Descriptive title or alternative text</title>
          <path d="M 424.354 259.225 C 424.354 360.104 342.989 441.882 242.62 441.882 C 142.251 441.882 60.886 360.104 60.886 259.225 C 60.886 158.346 142.251 76.568 242.62 76.568 C 342.989 76.568 424.354 158.346 424.354 259.225 Z" style="fill: rgb(216, 216, 216); stroke: rgb(0, 0, 0);"/>
          <path style="fill: rgb(216, 216, 216); stroke: rgb(0, 0, 0);" d="M 307.177 171.107 C 311.371 170.888 318.48 172.521 321.476 175.642 C 324.452 178.74 325.911 185.427 325.166 189.697 C 324.438 193.872 320.576 198.897 317.325 201.034 C 314.443 202.928 310.5 203.534 307.177 202.848 C 303.57 202.103 298.796 199.172 296.568 196.046 C 294.366 192.955 293.521 187.794 293.801 184.256 C 294.053 181.066 295.36 177.814 297.491 175.642 C 299.727 173.36 303.511 171.297 307.177 171.107 Z"/>
          <ellipse style="fill: rgb(216, 216, 216); stroke: rgb(0, 0, 0);" cx="309.963" cy="191.421" rx="23.063" ry="22.14"/>
          <path style="fill: rgb(216, 216, 216); stroke: rgb(0, 0, 0);" d="M 303.505 38.438 C 303.505 9.067 182.656 -3.873 182.656 37.231"/>
          <path style="fill: rgb(216, 216, 216); stroke: rgb(0, 0, 0);" d="M 285.976 46.088 C 285.976 29.622 192.802 22.368 192.802 45.412"/>
          <path style="fill: rgb(216, 216, 216); stroke: rgb(0, 0, 0);" d="M 278.597 60.849 C 278.597 43.39 204.795 35.699 204.795 60.131"/>
          <path d="M 229.589 73.801 Q 239.852 55.659 250.115 73.801 L 250.115 73.801 Q 260.378 91.944 239.852 91.944 L 239.852 91.944 Q 219.326 91.944 229.589 73.801 Z" style="fill: rgb(216, 216, 216); stroke: rgb(0, 0, 0);" />
          <path d="M 393.219 196.648 Q 412.823 140.836 432.426 196.648 L 432.426 196.648 Q 452.029 252.46 412.823 252.46 L 412.823 252.46 Q 373.616 252.46 393.219 196.648 Z" style="fill: rgb(216, 216, 216); stroke: rgb(0, 0, 0);" />
          <path d="M 48.662 194.227 Q 68.266 138.415 87.869 194.227 L 87.869 194.227 Q 107.472 250.039 68.266 250.039 L 68.266 250.039 Q 29.059 250.039 48.662 194.227 Z" style="fill: rgb(216, 216, 216); stroke: rgb(0, 0, 0);" />
          <ellipse style="fill: rgb(216, 216, 216); stroke: rgb(0, 0, 0);" cx="159.594" cy="187.884" rx="23.063" ry="22.14"/>
          <path style="fill: rgb(216, 216, 216); stroke: rgb(0, 0, 0);" d="M 160.516 316.113 C 162.278 388.26 316.054 409.209 325.646 317.035"/>
        </svg>